<svg width="24" height="24" viewBox="0 0 24 24" fill="none" xmlns="http://www.w3.org/2000/svg">
<path fill-rule="evenodd" clip-rule="evenodd" d="M12 14C7.46774 14 4 17.2415 4 21C4 21.5523 3.55228 22 3 22C2.44772 22 2 21.5523 2 21C2 15.922 6.59113 12 12 12C17.4089 12 22 15.922 22 21C22 21.5523 21.5523 22 21 22C20.4477 22 20 21.5523 20 21C20 17.2415 16.5323 14 12 14Z" fill="black"/>
<path fill-rule="evenodd" clip-rule="evenodd" d="M12 18C12 17.4477 12.4477 17 13 17L16 17C16.5523 17 17 17.4477 17 18C17 18.5523 16.5523 19 16 19L13 19C12.4477 19 12 18.5523 12 18Z" fill="black"/>
<path fill-rule="evenodd" clip-rule="evenodd" d="M12 5C10.8954 5 10 5.89543 10 7C10 8.10457 10.8954 9 12 9C13.1046 9 14 8.10457 14 7C14 5.89543 13.1046 5 12 5ZM8 7C8 4.79086 9.79086 3 12 3C14.2091 3 16 4.79086 16 7C16 9.20914 14.2091 11 12 11C9.79086 11 8 9.20914 8 7Z" fill="black"/>
</svg>
